<svg xmlns="http://www.w3.org/2000/svg" viewBox="0 0 500 500">
  <title>icon</title>
  <g id="Layer_2" data-name="Layer 2">
    <g id="Layer_1-2" data-name="Layer 1">
      <rect width="500" height="500" fill="#252627"/>
    </g>
    <g id="Layer_2-2" data-name="Layer 2">
      <g>
        <circle cx="250" cy="250" r="166.6" fill="#ea5caa"/>
        <path d="M180,209.67c0-37.7,28.45-63.11,71.53-63.11,20,0,45.71,8.28,63.39,20.44,2.62,1.66,3.45,3.31,2.21,5l-17.81,39.91c-1,3-2.62,3.87-5.11,2.35-15.46-8.84-28.72-13.81-39.77-14.77-8.7.14-14.5,4.28-14.5,9.8,0,4.83,6.9,9.67,20.71,14.22a138,138,0,0,1,38.53,19.88c12,8.7,20.85,24.58,20.85,44.05.14,37.7-29.27,62.83-72.77,62.83-23.75,0-48.88-7.46-62.69-18.64-2.49-1.93-3.31-3.59-2.35-5.11L200,286.59c1-3,2.62-3.73,5.11-2.21,14.36,8.15,27.48,12.57,39.36,13.53,9,0,14.91-4.7,14.91-10.22-.14-4.83-7-9.67-20.85-14.5a139.92,139.92,0,0,1-38-19.75C189,244.74,180,228.86,180,209.67Z" fill="#fff"/>
      </g>
    </g>
  </g>
</svg>
